<svg width="24" height="18" viewBox="0 0 24 18" fill="none" xmlns="http://www.w3.org/2000/svg">
<path d="M23.1843 12.9188L19.9968 2.30632C19.9356 2.09168 19.826 1.89391 19.6765 1.72816C19.527 1.56241 19.3415 1.43308 19.1343 1.35007H19.0781L19.1343 1.33132C18.0885 0.912255 17.0056 0.592106 15.9 0.375074C15.8033 0.355972 15.7039 0.356097 15.6073 0.375443C15.5107 0.394789 15.4188 0.432976 15.337 0.487824C15.2552 0.542671 15.1849 0.613104 15.1303 0.6951C15.0757 0.777095 15.0378 0.869046 15.0187 0.965699C14.9982 1.06178 14.997 1.16099 15.0152 1.25754C15.0334 1.35408 15.0707 1.44604 15.1248 1.52806C15.1789 1.61007 15.2487 1.68051 15.3303 1.73525C15.4119 1.79 15.5036 1.82797 15.6 1.84695C16.0218 1.93132 16.4343 2.03445 16.8375 2.14695C16.986 2.22402 17.1044 2.34852 17.174 2.50066C17.2436 2.65279 17.2603 2.82382 17.2215 2.98655C17.1827 3.14928 17.0906 3.29437 16.9599 3.39874C16.8291 3.50312 16.6673 3.56078 16.5 3.56257H16.425C14.9802 3.1858 13.493 2.99674 12 3.00007C10.542 2.99573 9.08953 3.17847 7.67809 3.54382C7.49849 3.59121 7.30769 3.57027 7.14264 3.48504C6.9776 3.39982 6.85005 3.25638 6.7847 3.0825C6.71935 2.90863 6.72085 2.71668 6.78891 2.54385C6.85696 2.37102 6.98674 2.22959 7.15309 2.14695H7.16247C7.56559 2.03445 7.97809 1.93132 8.39997 1.84695C8.49662 1.82788 8.58857 1.78996 8.67057 1.73535C8.75256 1.68075 8.823 1.61052 8.87784 1.52868C8.93269 1.44684 8.97088 1.355 8.99023 1.25841C9.00957 1.16181 9.0097 1.06235 8.99059 0.965699C8.94985 0.77171 8.83487 0.601342 8.67021 0.490984C8.50555 0.380627 8.30426 0.339028 8.10934 0.375074C6.99974 0.59696 5.91365 0.923417 4.8656 1.35007C4.65839 1.43308 4.47293 1.56241 4.32343 1.72816C4.17393 1.89391 4.06435 2.09168 4.0031 2.30632L0.815595 12.9188C0.732904 13.1963 0.732277 13.4918 0.81379 13.7696C0.895303 14.0474 1.05547 14.2957 1.27497 14.4844C1.36121 14.5675 1.45198 14.6458 1.54685 14.7188H1.55622C3.07497 15.9563 5.07184 16.9032 7.32184 17.447C7.37943 17.4654 7.4395 17.4749 7.49997 17.4751C7.6854 17.478 7.86534 17.4121 8.00506 17.2902C8.14477 17.1682 8.23435 16.9988 8.25649 16.8147C8.27863 16.6306 8.23177 16.4448 8.12495 16.2932C8.01813 16.1416 7.85894 16.0349 7.67809 15.9938C6.66658 15.7495 5.68318 15.4007 4.74372 14.9532C4.61514 14.8327 4.53308 14.6708 4.51195 14.4959C4.49081 14.3209 4.53195 14.1441 4.62814 13.9965C4.72433 13.8489 4.86943 13.7398 5.03799 13.6885C5.20655 13.6371 5.38781 13.6468 5.54997 13.7157C7.33122 14.5032 9.57184 15.0001 12 15.0001C14.4281 15.0001 16.6687 14.5032 18.45 13.7157C18.6121 13.6468 18.7934 13.6371 18.962 13.6885C19.1305 13.7398 19.2756 13.8489 19.3718 13.9965C19.468 14.1441 19.5091 14.3209 19.488 14.4959C19.4669 14.6708 19.3848 14.8327 19.2562 14.9532C18.3168 15.4007 17.3334 15.7495 16.3218 15.9938C16.141 16.0349 15.9818 16.1416 15.875 16.2932C15.7682 16.4448 15.7213 16.6306 15.7434 16.8147C15.7656 16.9988 15.8552 17.1682 15.9949 17.2902C16.1346 17.4121 16.3145 17.478 16.5 17.4751C16.5604 17.4749 16.6205 17.4654 16.6781 17.447C18.9281 16.9032 20.925 15.9563 22.4437 14.7188H22.4531C22.548 14.6458 22.6387 14.5675 22.725 14.4844C22.9445 14.2957 23.1046 14.0474 23.1861 13.7696C23.2677 13.4918 23.267 13.1963 23.1843 12.9188ZM8.99997 11.6251C8.77746 11.6251 8.55996 11.5591 8.37495 11.4355C8.18995 11.3119 8.04575 11.1362 7.9606 10.9306C7.87546 10.725 7.85318 10.4988 7.89659 10.2806C7.93999 10.0624 8.04714 9.86191 8.20447 9.70458C8.36181 9.54725 8.56226 9.4401 8.78049 9.39669C8.99872 9.35328 9.22492 9.37556 9.43049 9.46071C9.63605 9.54586 9.81176 9.69005 9.93537 9.87506C10.059 10.0601 10.125 10.2776 10.125 10.5001C10.125 10.7984 10.0064 11.0846 9.79546 11.2956C9.58449 11.5065 9.29834 11.6251 8.99997 11.6251ZM15 11.6251C14.7775 11.6251 14.56 11.5591 14.375 11.4355C14.1899 11.3119 14.0458 11.1362 13.9606 10.9306C13.8755 10.725 13.8532 10.4988 13.8966 10.2806C13.94 10.0624 14.0471 9.86191 14.2045 9.70458C14.3618 9.54725 14.5623 9.4401 14.7805 9.39669C14.9987 9.35328 15.2249 9.37556 15.4305 9.46071C15.6361 9.54586 15.8118 9.69005 15.9354 9.87506C16.059 10.0601 16.125 10.2776 16.125 10.5001C16.125 10.7984 16.0064 11.0846 15.7955 11.2956C15.5845 11.5065 15.2983 11.6251 15 11.6251Z" fill="white"/>
</svg>
