<svg width="24" height="25" viewBox="0 0 24 25" fill="none" xmlns="http://www.w3.org/2000/svg">
<path d="M21.75 12.243C21.7469 14.626 20.8726 16.9256 19.2918 18.7086C17.7109 20.4917 15.5326 21.6352 13.1672 21.9236C13.1145 21.9296 13.0612 21.9243 13.0107 21.9082C12.9602 21.892 12.9137 21.8654 12.8743 21.8299C12.8349 21.7945 12.8034 21.7511 12.782 21.7026C12.7606 21.6541 12.7497 21.6016 12.75 21.5486V14.493H15C15.1028 14.4932 15.2046 14.4723 15.299 14.4316C15.3934 14.3908 15.4784 14.3311 15.5487 14.2561C15.619 14.1811 15.6732 14.0924 15.7078 13.9956C15.7425 13.8988 15.7568 13.7959 15.75 13.6933C15.7334 13.5005 15.6445 13.321 15.501 13.1911C15.3575 13.0612 15.1701 12.9904 14.9766 12.993H12.75V10.743C12.75 10.3452 12.908 9.96366 13.1893 9.68236C13.4706 9.40105 13.8522 9.24302 14.25 9.24302H15.75C15.8528 9.24324 15.9546 9.22233 16.049 9.18157C16.1434 9.14081 16.2284 9.08108 16.2987 9.00608C16.369 8.93109 16.4232 8.84243 16.4578 8.74562C16.4925 8.64882 16.5068 8.54592 16.5 8.44333C16.4834 8.25014 16.3942 8.07044 16.2503 7.94047C16.1064 7.81049 15.9186 7.73993 15.7247 7.74302H14.25C13.4544 7.74302 12.6913 8.05909 12.1287 8.6217C11.5661 9.18431 11.25 9.94737 11.25 10.743V12.993H9C8.89719 12.9928 8.79542 13.0137 8.70103 13.0545C8.60664 13.0952 8.52164 13.155 8.4513 13.23C8.38097 13.3049 8.3268 13.3936 8.29217 13.4904C8.25755 13.5872 8.24319 13.6901 8.25 13.7927C8.26659 13.9859 8.35583 14.1656 8.49972 14.2956C8.64361 14.4255 8.83144 14.4961 9.02532 14.493H11.25V21.5505C11.2503 21.6034 11.2394 21.6558 11.2181 21.7042C11.1967 21.7526 11.1653 21.796 11.126 21.8314C11.0867 21.8668 11.0403 21.8935 10.99 21.9097C10.9396 21.926 10.8864 21.9313 10.8338 21.9255C8.40502 21.6297 6.17584 20.4329 4.58745 18.572C2.99905 16.711 2.16721 14.3215 2.25657 11.8765C2.44407 6.81396 6.54469 2.69833 11.6109 2.50146C12.9226 2.45065 14.231 2.66491 15.4579 3.13142C16.6849 3.59794 17.8051 4.30712 18.7516 5.21655C19.6982 6.12598 20.4516 7.21697 20.9668 8.42428C21.482 9.63158 21.7483 10.9304 21.75 12.243Z" fill="white"/>
</svg>
