<svg width="20" height="20" viewBox="0 0 20 20" fill="none" xmlns="http://www.w3.org/2000/svg">
<path d="M17.875 0.625H2.125C1.72718 0.625 1.34564 0.783035 1.06434 1.06434C0.783035 1.34564 0.625 1.72718 0.625 2.125V17.875C0.625 18.2728 0.783035 18.6544 1.06434 18.9357C1.34564 19.217 1.72718 19.375 2.125 19.375H17.875C18.2728 19.375 18.6544 19.217 18.9357 18.9357C19.217 18.6544 19.375 18.2728 19.375 17.875V2.125C19.375 1.72718 19.217 1.34564 18.9357 1.06434C18.6544 0.783035 18.2728 0.625 17.875 0.625ZM7 14.5C7 14.6989 6.92098 14.8897 6.78033 15.0303C6.63968 15.171 6.44891 15.25 6.25 15.25C6.05109 15.25 5.86032 15.171 5.71967 15.0303C5.57902 14.8897 5.5 14.6989 5.5 14.5V8.5C5.5 8.30109 5.57902 8.11032 5.71967 7.96967C5.86032 7.82902 6.05109 7.75 6.25 7.75C6.44891 7.75 6.63968 7.82902 6.78033 7.96967C6.92098 8.11032 7 8.30109 7 8.5V14.5ZM6.25 6.625C6.0275 6.625 5.80999 6.55902 5.62498 6.4354C5.43998 6.31179 5.29578 6.13609 5.21064 5.93052C5.12549 5.72495 5.10321 5.49875 5.14662 5.28052C5.19002 5.06229 5.29717 4.86184 5.4545 4.7045C5.61184 4.54717 5.81229 4.44002 6.03052 4.39662C6.24875 4.35321 6.47495 4.37549 6.68052 4.46064C6.88609 4.54578 7.06179 4.68998 7.1854 4.87498C7.30902 5.05999 7.375 5.2775 7.375 5.5C7.375 5.79837 7.25647 6.08452 7.0455 6.2955C6.83452 6.50647 6.54837 6.625 6.25 6.625ZM15.25 14.5C15.25 14.6989 15.171 14.8897 15.0303 15.0303C14.8897 15.171 14.6989 15.25 14.5 15.25C14.3011 15.25 14.1103 15.171 13.9697 15.0303C13.829 14.8897 13.75 14.6989 13.75 14.5V11.125C13.75 10.6277 13.5525 10.1508 13.2008 9.79918C12.8492 9.44754 12.3723 9.25 11.875 9.25C11.3777 9.25 10.9008 9.44754 10.5492 9.79918C10.1975 10.1508 10 10.6277 10 11.125V14.5C10 14.6989 9.92098 14.8897 9.78033 15.0303C9.63968 15.171 9.44891 15.25 9.25 15.25C9.05109 15.25 8.86032 15.171 8.71967 15.0303C8.57902 14.8897 8.5 14.6989 8.5 14.5V8.5C8.49948 8.31542 8.56704 8.13714 8.68976 7.99926C8.81247 7.86139 8.98171 7.7736 9.1651 7.75271C9.34849 7.73182 9.53315 7.77928 9.68373 7.88603C9.83431 7.99277 9.94024 8.15129 9.98125 8.33125C10.4887 7.98723 11.0803 7.78795 11.6925 7.75481C12.3047 7.72166 12.9144 7.85591 13.4561 8.14312C13.9977 8.43034 14.4509 8.85967 14.767 9.38503C15.083 9.91038 15.25 10.5119 15.25 11.125V14.5Z" fill="white"/>
</svg>
