<svg width="24" height="25" viewBox="0 0 24 25" fill="none" xmlns="http://www.w3.org/2000/svg">
<path d="M22.2075 2.6983C22.0913 2.59796 21.9499 2.53123 21.7986 2.50529C21.6473 2.47935 21.4917 2.4952 21.3487 2.55112L2.34937 9.98643C2.0801 10.0911 1.85214 10.2805 1.6998 10.526C1.54745 10.7714 1.47898 11.0597 1.50468 11.3475C1.53037 11.6353 1.64886 11.9069 1.84229 12.1215C2.03572 12.3361 2.29362 12.482 2.57718 12.5374L7.49999 13.5039V18.993C7.49902 19.292 7.58787 19.5844 7.75503 19.8323C7.92219 20.0802 8.15995 20.2721 8.43749 20.3833C8.71461 20.4965 9.01936 20.5236 9.31213 20.4613C9.60489 20.3989 9.87211 20.2499 10.0791 20.0336L12.4528 17.5717L16.2187 20.868C16.4904 21.109 16.8409 21.2424 17.2041 21.243C17.3632 21.2429 17.5214 21.2179 17.6728 21.1689C17.9203 21.0904 18.1428 20.9484 18.3183 20.7571C18.4938 20.5658 18.6162 20.3319 18.6731 20.0786L22.4784 3.52424C22.5125 3.37494 22.5052 3.2192 22.4575 3.0737C22.4098 2.9282 22.3234 2.79843 22.2075 2.6983ZM17.2059 19.743L9.45468 12.9461L20.6109 4.95018L17.2059 19.743Z" fill="white"/>
</svg>
