<svg width="22" height="19" viewBox="0 0 22 19" fill="none" xmlns="http://www.w3.org/2000/svg">
<path d="M21.0344 4.28434L18.2031 7.10622C17.6406 13.6593 12.1094 18.75 5.50001 18.75C4.14063 18.75 3.01563 18.5343 2.16251 18.1125C1.47813 17.7656 1.19688 17.4 1.12188 17.2875C1.05983 17.1932 1.01984 17.0862 1.0049 16.9743C0.989964 16.8625 1.00046 16.7487 1.0356 16.6415C1.07074 16.5342 1.12963 16.4363 1.20788 16.355C1.28612 16.2737 1.3817 16.2111 1.48751 16.1718C1.50626 16.1625 3.71876 15.3187 5.15313 13.6968C4.26358 13.0635 3.48171 12.2911 2.83751 11.4093C1.55313 9.66559 0.193756 6.63747 1.00938 2.11872C1.03502 1.98438 1.09646 1.85946 1.18722 1.75715C1.27798 1.65484 1.39468 1.57894 1.52501 1.53747C1.65574 1.49466 1.79574 1.48863 1.92967 1.52005C2.0636 1.55146 2.18632 1.61911 2.28438 1.71559C2.31251 1.75309 5.43438 4.82809 9.25001 5.82184V5.24997C9.25369 4.65532 9.37446 4.06722 9.60543 3.51925C9.8364 2.97129 10.173 2.47418 10.5961 2.05631C11.0192 1.63844 11.5205 1.30801 12.0713 1.08386C12.6221 0.859719 13.2116 0.746261 13.8063 0.749966C14.5867 0.761097 15.351 0.974199 16.0246 1.36851C16.6982 1.76282 17.2582 2.32489 17.65 2.99997H20.5C20.6481 2.9995 20.793 3.04288 20.9164 3.12463C21.0399 3.20638 21.1364 3.32284 21.1938 3.45934C21.2478 3.59787 21.2615 3.74887 21.2333 3.89487C21.2051 4.04087 21.1361 4.1759 21.0344 4.28434Z" fill="white"/>
</svg>
