<svg width="24" height="25" viewBox="0 0 24 25" fill="none" xmlns="http://www.w3.org/2000/svg">
<path d="M21.9684 6.76067C21.8801 6.41506 21.7109 6.0954 21.4747 5.82807C21.2385 5.56075 20.9421 5.35341 20.61 5.22317C17.3962 3.98192 12.2812 3.99317 12 3.99317C11.7188 3.99317 6.60375 3.98192 3.39 5.22317C3.0579 5.35341 2.76153 5.56075 2.52534 5.82807C2.28915 6.0954 2.1199 6.41506 2.03156 6.76067C1.78875 7.69629 1.5 9.40629 1.5 12.2432C1.5 15.08 1.78875 16.79 2.03156 17.7257C2.11977 18.0715 2.28895 18.3913 2.52515 18.6588C2.76136 18.9263 3.0578 19.1338 3.39 19.2641C6.46875 20.4519 11.2875 20.4932 11.9381 20.4932H12.0619C12.7125 20.4932 17.5341 20.4519 20.61 19.2641C20.9422 19.1338 21.2386 18.9263 21.4748 18.6588C21.711 18.3913 21.8802 18.0715 21.9684 17.7257C22.2113 16.7882 22.5 15.08 22.5 12.2432C22.5 9.40629 22.2113 7.69629 21.9684 6.76067ZM15.2081 12.5554L10.7081 15.5554C10.6516 15.593 10.586 15.6147 10.5181 15.618C10.4503 15.6213 10.3829 15.6061 10.323 15.574C10.2631 15.542 10.2131 15.4943 10.1782 15.436C10.1434 15.3777 10.125 15.3111 10.125 15.2432V9.24317C10.125 9.17526 10.1434 9.10862 10.1782 9.05035C10.2131 8.99208 10.2631 8.94437 10.323 8.91232C10.3829 8.88027 10.4503 8.86508 10.5181 8.86836C10.586 8.87165 10.6516 8.89329 10.7081 8.93098L15.2081 11.931C15.2596 11.9652 15.3017 12.0116 15.3309 12.0661C15.3601 12.1206 15.3754 12.1814 15.3754 12.2432C15.3754 12.305 15.3601 12.3658 15.3309 12.4202C15.3017 12.4747 15.2596 12.5211 15.2081 12.5554Z" fill="white"/>
</svg>
